# xmcd CD database file
#
# Track frame offsets:
#	150
#	14443
#	27189
#	41384
#	55579
#	71376
#	84914
#	97945
#	114204
#	133741
#	146452
#	162062
#	174523
#	191558
#	204363
#
# Disc length: 2729 seconds
#
# Revision: 1
# Processed by: cddbd v1.5.1PL0 Copyright (c) Steve Scherf et al.
# Submitted via: Feurio! 1.68 - http://www.feurio.com
#
DISCID=b20aa70f
DTITLE=DAVID AUSTIN CODY - YOU CAN'T PRETEND WAYLON NEVER HAPPENED
DYEAR=1900
DGENRE=
TTITLE0=ALL AROUND COWBOY
TTITLE1=ARE YOU READY FOR THE COUNTRY
TTITLE2=CLYDE TEXAS
TTITLE3=SWEET DREAM WOMAN
TTITLE4=DEEP IN THE WEST
TTITLE5=THIS TIME
TTITLE6=WE HAD IT ALL
TTITLE7=WILD ONES
TTITLE8=YOU CAN'T PRETEND WAYLON NEVER HAPPENED
TTITLE9=ARE YOU SURE WAYLON DONE IT THIS WAY
TTITLE10=I DO BELIEVE
TTITLE11=YOU ASKED ME TO
TTITLE12=LOVIN' HER WAS EASIER
TTITLE13=WHERE WOULD I BE WITHOUT YOU
TTITLE14=THANKS FOR THE MUSIC
EXTD=
EXTT0=
EXTT1=
EXTT2=
EXTT3=
EXTT4=
EXTT5=
EXTT6=
EXTT7=
EXTT8=
EXTT9=
EXTT10=
EXTT11=
EXTT12=
EXTT13=
EXTT14=
PLAYORDER=
